<?xml version="1.0"?>
<svg width="24" height="24" xmlns="http://www.w3.org/2000/svg" xmlns:svg="http://www.w3.org/2000/svg" clip-rule="evenodd" fill-rule="evenodd" stroke-linejoin="round" version="1.1" xml:space="preserve">
 <g class="layer">
  <title>Layer 1</title>
  <path d="m19,24l-14,0c-2.76,0 -5,-2.24 -5,-5l0,-14c0,-2.76 2.24,-5 5,-5l14,0c2.76,0 5,2.24 5,5l0,14c0,2.76 -2.24,5 -5,5zm-2.74,-5.15c0.21,0.15 0.49,0.19 0.73,0.1c0.25,-0.09 0.43,-0.3 0.49,-0.56c0.58,-2.72 1.98,-9.61 2.51,-12.09c0.04,-0.19 -0.03,-0.38 -0.17,-0.51c-0.15,-0.12 -0.35,-0.16 -0.54,-0.09c-2.79,1.03 -11.4,4.26 -14.92,5.57c-0.22,0.08 -0.37,0.29 -0.36,0.53c0.01,0.24 0.17,0.44 0.4,0.51c1.57,0.47 3.65,1.13 3.65,1.13c0,0 0.96,2.92 1.47,4.41c0.06,0.18 0.21,0.33 0.4,0.38c0.19,0.05 0.4,0 0.54,-0.14c0.81,-0.76 2.06,-1.95 2.06,-1.95c0,0 2.39,1.75 3.74,2.71zm-7.34,-5.78l1.12,3.69l0.24,-2.34c0,0 4.33,-3.9 6.79,-6.12c0.08,-0.07 0.09,-0.18 0.03,-0.25c-0.06,-0.08 -0.17,-0.1 -0.26,-0.05c-2.85,1.83 -7.92,5.07 -7.92,5.07z" fill="#1da01e" id="telegram-3"/>
 </g>
</svg>